
<svg width="215px" height="61px" viewBox="0 0 215 61" version="1.1" xmlns="http://www.w3.org/2000/svg" xmlns:xlink="http://www.w3.org/1999/xlink">
	<defs>
		<polygon id="path-1rdrbz3v94-1" points="0 0 215 0 215 60.4 0 60.4"></polygon>
	</defs>
	<g id="Page-1" stroke="none" stroke-width="1" fill="none" fill-rule="evenodd">
		<g id="logo-alt_ab27a2e9">
			<mask id="mask-1rdrbz3v94-2" fill="white">
				<use xlink:href="#path-1rdrbz3v94-1"></use>
			</mask>
			<g id="SVGID_1_"></g>
			<path d="M115.1,11.8 C118.333333,11.8 121.166667,12.2333333 123.6,13.1 L123.25,15.9 C120.616667,14.8333333 117.916667,14.3 115.15,14.3 C110.783333,14.3 107.25,15.6583333 104.55,18.375 C101.85,21.0916667 100.5,25.0666667 100.5,30.3 C100.5,35.3 101.983333,39.1666667 104.95,41.9 C107.916667,44.6333333 111.85,46 116.75,46 C118.95,46 121.183333,45.75 123.45,45.25 L123.45,32.9 L115.55,32.9 L115.55,30.5 L125.85,30.5 L125.85,47.15 C122.783333,48.05 119.75,48.5 116.75,48.5 C111.083333,48.5 106.508333,46.8666667 103.025,43.6 C99.5416667,40.3333333 97.8,35.8666667 97.8,30.2 C97.8,24.6 99.425,20.1333333 102.675,16.8 C105.925,13.4666667 110.066667,11.8 115.1,11.8 Z M188.6,11.8 C191.833333,11.8 194.666667,12.2333333 197.1,13.1 L196.75,15.9 C194.116667,14.8333333 191.416667,14.3 188.65,14.3 C184.283333,14.3 180.75,15.6583333 178.05,18.375 C175.35,21.0916667 174,25.0666667 174,30.3 C174,35.3 175.483333,39.1666667 178.45,41.9 C181.416667,44.6333333 185.35,46 190.25,46 C192.45,46 194.683333,45.75 196.95,45.25 L196.95,32.9 L189.05,32.9 L189.05,30.5 L199.35,30.5 L199.35,47.15 C196.283333,48.05 193.25,48.5 190.25,48.5 C184.583333,48.5 180.008333,46.8666667 176.525,43.6 C173.041667,40.3333333 171.3,35.8666667 171.3,30.2 C171.3,24.6 172.925,20.1333333 176.175,16.8 C179.425,13.4666667 183.566667,11.8 188.6,11.8 Z M2.65,12.3 L9.05,30.9 L13.4,43.8 L19.85,26.9 L14.1,12.3 L16.7,12.3 L21.3,24.5 L25.5,12.3 L28.15,12.3 L22.5,27.35 L28.75,43.7 L33.1,31.1 L39.6,12.3 L42.25,12.3 L29.8,48 L27.9,48 L21.05,30.25 L14.25,48 L12.35,48 L0,12.3 L2.65,12.3 Z M50.95,12.3 L50.95,45.55 L67.3,45.55 L67.3,48 L48.5,48 L48.5,12.3 L50.95,12.3 Z M93.05,12.3 L93.05,14.7 L76.7,14.7 L76.7,28.05 L91.05,28.05 L91.05,30.45 L76.7,30.45 L76.7,48 L74.25,48 L74.25,12.3 L93.05,12.3 Z M137.8,12.3 L160.65,43 L160.5,27.6 L160.5,12.3 L162.85,12.3 L162.85,48 L161.3,48 L137.7,16.4 L137.85,29.65 L137.85,48 L135.5,48 L135.5,12.3 L137.8,12.3 Z M208.33,11.125 C209.95,11.125 211.2775,11.6525 212.3125,12.7075 C213.3475,13.7625 213.865,15.07 213.865,16.63 C213.865,18.22 213.3425,19.5375 212.2975,20.5825 C211.2525,21.6275 209.93,22.15 208.33,22.15 C206.7,22.15 205.3725,21.62 204.3475,20.56 C203.3225,19.5 202.81,18.19 202.81,16.63 C202.81,15.02 203.34,13.7 204.4,12.67 C205.46,11.64 206.77,11.125 208.33,11.125 Z M208.33,11.845 C206.97,11.845 205.835,12.2925 204.925,13.1875 C204.015,14.0825 203.56,15.23 203.56,16.63 C203.56,18 204,19.1425 204.88,20.0575 C205.76,20.9725 206.91,21.43 208.33,21.43 C209.73,21.43 210.875,20.9775 211.765,20.0725 C212.655,19.1675 213.1,18.02 213.1,16.63 C213.1,15.26 212.6575,14.12 211.7725,13.21 C210.8875,12.3 209.74,11.845 208.33,11.845 Z M208.09,13.585 C208.81,13.585 209.36,13.755 209.74,14.095 C210.12,14.435 210.31,14.895 210.31,15.475 C210.31,16.275 209.89,16.815 209.05,17.095 L210.73,19.69 L209.92,19.69 L208.39,17.29 L207.16,17.29 L207.16,19.69 L206.455,19.69 L206.455,13.585 L208.09,13.585 Z M207.985,14.245 L207.16,14.245 L207.16,16.63 L207.895,16.63 C209.025,16.63 209.59,16.225 209.59,15.415 C209.59,15.045 209.455,14.7575 209.185,14.5525 C208.915,14.3475 208.515,14.245 207.985,14.245 Z" id="Combined-Shape" fill="#FFFFFF" fill-rule="nonzero" mask="url(#mask-1rdrbz3v94-2)"></path>
		</g>
	</g>
</svg>