<svg version="1.1" id="Layer_1" xmlns="http://www.w3.org/2000/svg" x="0" y="0" width="509.1" height="508.8" viewBox="0 0 509.1 508.8" xml:space="preserve"><path d="M509 247.1c0-.8 0-1.5-.1-2.3-.7-.1-1.5-.2-2.3-.3-5.4-.8-11.8-2.3-18.6-5-16.9-6.7-40.1-22.3-56.1-58.5-.5-1.2-1.1-2.4-1.6-3.7-3.7-8.9-7.2-17.7-10.5-26.3C397 93.1 379 47.3 330.6 39.2c-21.2-3.6-36.8.2-42.7 10.2-3.1 5.3-2.6 12-.5 13.3 0 0 2-7.9 7.9-12C305 44 327 42.8 348 66.1c13.4 14.8 22.5 41.1 25.6 74 .9 9.7 1.7 21.1 1.8 33.6 0 3.9 0 7.9-.1 11.9-.6 22.1-3.3 46.8-10.1 71.4-2.8 10.1-6 19.9-9.4 29.5-4.7 13.2-10 26-15.3 38.4-.2.5-.4.9-.6 1.4-2.2 5.1-4.4 10.1-6.5 15.2-1.5 3.5-3 6.9-4.5 10.3-.4 1.1-.9 2.1-1.4 3.1l-.1.1.1.1c-4.9 11.2-10.1 21.5-15.1 31.6-13.1 26.3-23.5 47-20.3 64.3 3.8 21.2 18.1 27.7 26.2 26.9 4.4-.4 8.8-4.8 10.1-8.5l.7-1.9-2 .5c-6.3 1.5-12.8 2-16.4-9.4-5-15.4-5-34 47.6-91.6l.5-.5.3.5-.1-.8c16.2-17.6 31.5-33 46-46.2 38.6-35.1 71.9-54.9 101.8-60.9.8-.2 1.5-.3 2.2-.4v-4.2c.1-2.5.1-5 0-7.4zM294.1 48.8c-3.6 2.4-5.3 5.2-6.2 7.7v-.1c.9-2.5 2.7-5.2 6.2-7.6 8-5.5 24-7.7 41.1 3.3-17.1-10.9-33-8.8-41.1-3.3zm177.7 184.8c-11.9-7.7-24.8-19.8-35.6-39.1 10.8 19.3 23.7 31.4 35.6 39.1zm-42.3-51.5c9 19.6 10.3 47.5 3 68.8-5.6 16.2-12.2 22.7-17 25.2-.3.1-.5.3-.8.4-3.8 1.8-6.8 1.4-8.1 1.1 0-.1-.1-.1-.1-.2-.6-.8-1.2-1.5-2-2.1.8-.2 1.6-.5 2.5-.9 4.7-2.7 7.6-9.7 8.5-20.8 2-25-5.8-42.6-15.5-47.6 3.2-1.2 5.9-3.6 8-7 4.7-7.8 4.2-16.1-1.2-22.3-3.8-4.3-9-6.1-12.6-4.5-4.4 2-5.3 7.1-4.6 10.9.7 4.1 3 7 5.7 7.2 1.3.1 2.5-.3 3.3-1.2 2.2-2.4 1.2-6.9 0-7.7.5 2.2-.5 4.9-1.7 6.2-.2.2-.6.6-1.5.5-1.6-.1-3.1-2.4-3.6-5.3-.5-3 .1-7 3.3-8.5 2.6-1.2 6.9.5 10 4 1.8 2 7.1 9.4 1 19.7-2.5 4.2-6.1 6.6-10.3 6.8-1.1.1-2.1 0-3.2-.3-6.2-1.3-13.6-7.7-15-18.6v-.2c-.2-1.8-.6-6.5.1-11.7.7-5 2.5-10.3 6.5-13.7 4.7-4 11.8-4.5 21.1-1.7 9.5 2.9 17.5 10.4 23.1 21.6.4.5.7 1.2 1.1 1.9zm-15.8 97.3c-1.4 2.6-3.3 6.5-4.6 11v-.1c1.3-4.5 3.2-8.4 4.6-10.9zm-12.4 2.6c-1.5-2-3.8-3.2-6.4-3.1-3.8 0-6.2 2.7-7.3 5-.1-.1-.2-.2-.2-.3-.4-.5-.7-.9-1.1-1.4.5-2 2.6-8.5 9-8.1 1.5.1 2.9.3 4.1.8h.1c.1 0 .2.1.2.1.1 0 .2.1.3.1 2 .8 3.7 2.1 4.9 3.7.2.2.3.5.5.8 2 3.4 2.4 8.2 1.1 14-1-1-2.2-1.8-3.6-2.3h-.1c.7-3.5.2-6.9-1.5-9.3zm-4.1 20c.9.5 2.3 4.1 1.4 7.1-.8 2.7-3 4-6.8 4.1 3.7-.1 6-1.4 6.7-4.1.9-3-.5-6.5-1.3-7.1zm-5.3-9c1.6-1.4 4.4-3.1 8.5-2.3.7-2.8.3-5.5-1-7.3-.4-.5-.9-1-1.4-1.3.5.3 1 .8 1.4 1.3 1.3 1.8 1.7 4.5 1 7.3-4.1-.9-6.9.8-8.5 2.3zm-14.2-16.6c-.8-.3-1.6-.5-2.3-.7 0-1.5.3-4.6 2.4-7 1.6-1.9 4.1-3 7.3-3.2 8-.5 10.6 4.1 11.4 6.5-.4-.1-.8-.1-1.1-.1-1.2-.1-2.2.1-3.2.3-.2-.5-.5-1.1-1-1.7-1.2-1.3-3.1-1.9-5.7-1.8-5 .1-7.2 4.5-7.8 7.7zm2.2.9c-.1 0-.1 0 0 0-.1 0-.1 0 0 0-.1 0-.1 0 0 0zm9.1-13.9s0-.1 0 0c1.8.3 3.3.9 4.5 1.6-1.2-.8-2.7-1.3-4.5-1.6zm.9 9.7c0-.1 0-.1 0 0-.1-.3-.2-.7-.6-1.1l-.3-.3.3.3c.4.3.6.7.6 1.1.1 0 .1 0 0 0-3 1.7-4.7 4.8-5.6 7.4.9-2.7 2.7-5.8 5.6-7.4zm17.2-56.5c4.7 8.2 7.5 21 6.2 36.8-1.1 12.9-4.6 17.4-7.3 19-2.1 1.2-4.2.9-5.2.6h-.1l-1.8-.6 1.8.6h.1c1 .3 3.1.6 5.2-.6 2.8-1.6 6.3-6.2 7.3-19 1.3-15.8-1.6-28.6-6.2-36.8zm-20.7-12.4c-3.9-2.4-7.1-6.3-9.1-10.9 2 4.6 5.2 8.5 9.1 10.9zm-8.9-38.5c1.2-2.8 2.8-5.3 5.2-7.3 5.4-4.5 13.2-5.2 23.2-2.1 2.8.9 5.4 2.1 8 3.7-2.5-1.6-5.2-2.8-7.9-3.6-10-3.1-17.8-2.4-23.2 2.1-2.4 1.9-4.1 4.4-5.3 7.2zm-20.2-114c28.1 18 42.8 55.4 60.4 100.1 2.4 6.1 4.9 12.4 7.4 18.7-2.5-6.3-5-12.5-7.4-18.6-17.6-44.8-32.3-82.2-60.4-100.2zm3.2 228.5c2.5-2.7 5.6-4.3 9.2-4.8 1.1-.2 2.2-.2 3.4-.1.1-1.9.5-5.3 2.9-8.1 2.1-2.4 5.1-3.8 8.9-4 .7 0 1.3-.1 1.9 0 .4-7.1 3.1-43.1 19.1-48.5-1.9-2.8-4-4.9-6.2-6.3 2.2 1.3 4.3 3.5 6.2 6.3-16 5.5-18.7 41.5-19.1 48.5h-1.9c-3.9.3-6.9 1.6-8.9 4-2.4 2.8-2.8 6.2-2.9 8.1-1.1-.1-2.3-.1-3.4.1-3.6.5-6.8 2.1-9.2 4.8-.1 0 0 0 0 0zm-5.7 15.8c0 2.6.3 5.1 1 7.3 1.1 3.5 3.6 6.5 6.7 8.4-3.1-1.9-5.6-4.9-6.7-8.4-.8-2.2-1.1-4.7-1-7.3-.1 0-.1 0 0 0zm8.4 34.3c3.7-8.7 1.2-16.1.6-17.9.7 1.8 3.1 9.2-.6 17.9-3.1 7.5-8.1 9.6-10.3 10.2 2.2-.6 7.2-2.8 10.3-10.2zm-10.4 12.5c.3-.1.7-.2 1.1-.3.3.9.9 1.9 1.7 2.7-1 .2-2.1.7-3.3 1.6.2-1.3.4-2.7.5-4zm2.1 13.2c-.2-.1-.4-.3-.7-.4-1.2-.6-2.5-.9-4.1-1 1.5 0 2.9.3 4 1 .4.1.6.2.8.4zm-12.1-30.6c1.1.3 2.4.8 3.6 1.6-1.2-.8-2.5-1.3-3.6-1.6zm-.9 2.1c1.8.5 4.5 1.6 6.4 4.4 2.9 4.2 3 11.1.4 20l-.9 3c-1.9.3-4 1.1-6.4 2.2 1.1-2 2.1-4.2 2.8-6.3 1.1-3.2 1.7-6.3 1.8-8.9.2-7.4-3.4-9.9-5.6-10.7.5-1.2 1-2.5 1.5-3.7zm.5 21.4c.8-2.5 1.2-5 1.3-7.1.1-5-1.7-7.2-3.2-8.1 1.5.9 3.4 3.1 3.3 8.1-.1 2.1-.6 4.6-1.4 7.1-1.3.7-5.8 2.8-9.1.5 3.3 2.3 7.8.2 9.1-.5zm-11.3 3.9c.2-.6.5-1.1.7-1.7 1.5 1.2 3.4 1.6 5.1 1.6 1.6 0 3.1-.4 4.5-.8-.6 1.5-1.3 3-2.2 4.5-1.2.4-5.5 1.3-9-1.7.3-.7.6-1.3.9-1.9zm-1.8 4l.9.6-.9-.6zm-4.4 9.5c2.9.2 5.8-.7 8.5-2.9.8-.6 1.5-1.3 2.3-2.1.2-.3.4-.5.6-.7l.1-.1c.4-.5.9-1.1 1.3-1.6-.4.6-.8 1.1-1.3 1.6l-.1.1c-.2.2-.4.4-.6.7-.7.8-1.5 1.5-2.3 2.1-2.7 2.2-5.5 3.2-8.5 2.9zm-1 2.2c.7.1 1.3.2 2 .2 3.1 0 6.1-1.1 9-3.4.9-.7 1.8-1.6 2.6-2.5.2-.2.4-.5.6-.7 1.1-1.3 2-1.7 3.2-2.4 5.2-2.8 9.4-3.6 12-2.2 1 .6 1.7 1.4 2.2 2.2-3.5-.4-8.4 3.2-14.6 7.6-2 1.5-4 2.9-6.1 4.4-7.3 4.9-12.1 3.9-13.9 3.2 1-2.1 2-4.3 3-6.4zm-5.8 107.2c2.7-.3 5.6-2.6 7.2-5-1.6 2.4-4.5 4.7-7.2 5-3.2.3-7.1-.7-11-3.2 3.8 2.5 7.8 3.5 11 3.2zm38.5-110.2c-53.5 58.5-53.3 77.7-48.1 93.8 1.7 5.4 4.2 8.4 6.8 10-2.6-1.6-5.1-4.7-6.8-10.1-5.2-16-5.4-35.3 48.1-93.7.3-.3.6-.7.9-1l-1-1.6c-.2-.2-.3-.4-.5-.6.2.1.4.3.5.6l1 1.6c-.3.3-.6.6-.9 1zm-.7-23.7c2.9-1.4 6.7-4.3 9.4-10.6 3.3-7.8 2.2-14.4 1.2-17.8.7.2 1.5.3 2.3.3 4.5.2 8.2-2.2 10.1-6.7 2.3-5.2 1.6-10.7-1.8-14.6-2.1-2.4-4.7-3.5-6.8-3-3.6 1-4.8 5.2-4.4 8.6.4 3 1.9 5 3.8 5 1.4 0 2.2-.6 2.7-1.2 1.6-1.9-.4-4.9-1.4-5.3.2.9.3 3-.3 3.8-.1.2-.4.3-.9.3-.6 0-1.4-1.2-1.6-3.1-.3-2.6.5-5.5 2.8-6.1 1-.3 2.8.3 4.5 2.3 1.1 1.2 4.3 5.6 1.4 12.2-1.6 3.6-4.4 5.6-8 5.4-1-.1-2.1-.3-3.1-.7-3.5-1.3-6.7-4.4-7.9-8.2-1.5-4.6-1.2-10.3.7-15 .5-1.2 1-2.4 1.7-3.5 2.3-3.7 5.7-6 9.7-6.5 5.4-.7 11.5 2.1 15.5 7.4.3.4.6.8.9 1.3 3.8 5.7 7.8 17.3-.2 36.6-9.2 22.3-19.5 23.9-23.5 23.5-1.3-.1-2.4-.5-3.4-1-1.7-.7-2.9-2.1-3.4-3.4zM378 343c-6.3 6.4-12.7 13.1-19.3 20.2 6.6-7.1 13-13.9 19.3-20.2 7.4-7.6 14.7-14.6 21.7-21.2h.1c-7.1 6.5-14.4 13.6-21.8 21.2zm12-23.6c.5-1.3.8-2.6 1.2-3.8h.4c6.5 0 8.5-3.6 9.1-5.8 1.1-3.7-.4-8.5-2.4-9.7-2-1.2-4-.5-5.2.2-.1-1.7-.3-3.2-.5-4.7.7-1 3.6-4.4 9.4-2.3 3.1 1.1 4.5 3.8 5.2 5.9.2.6.4 1.2.5 1.9.8 4.4-.1 9.6-2.6 13.4-4.5 7-11.5 6.4-15.1 4.9zm116.9-62.6c-29.4 5.7-61.8 24.6-99.2 57.8v-.1c37.3-33.2 69.7-52 99.2-57.7v-2.3c0-2.6 0-5.1-.1-7.7.1 2.5.1 5.1.1 7.7v2.3zM242.8 137.6c-.8-.2-1.5-.4-2.2-.6-10.3-3.5-14.9-14.9-15.3-24-.3-8.5 2.7-9.5 4.1-9.5.4 0 .7.1.7.1s-.8-.5-1.9-.5c-1.7 0-4.3 1.4-5.3 9-.4 3-.4 7.1-.2 11.9 0 .6.1 1.2.1 1.7.9 4.2 2 8 3.3 11.5 4.1 11.2 9.7 18 14.5 22.1.8.7 1.5 1.3 2.2 1.8v-23.5zm-17.9-14.5c2 5.6 5.4 10.6 10.3 13.7-4.9-3.1-8.3-8.1-10.3-13.7zm15.6 33v-16.7 16.7zM227.2 146c-1.8-3.9-2.9-7.2-3.4-8.5.3 3.1.8 6.2 1.2 9.3 1.3 9 2.9 17.8 4.4 23.9 2.3 9.7 7 24.8 11.1 37.4.8 2.4 1.5 4.7 2.2 6.8v-49.2c-.8-.4-1.5-.9-2.2-1.5-6.1-4.6-10.5-12.1-13.3-18.2zm13.3 54.8V167c-5.2-3.4-9.2-8.7-12.2-13.8 3 5.2 7.1 10.5 12.2 13.9v33.7zM104.1 320c14.5 13.2 29.8 28.6 46 46.2l-.1.8.3-.5.5.5c52.7 57.6 52.6 76.2 47.6 91.6-3.7 11.4-10.1 10.9-16.4 9.4l-2-.5.7 1.9c1.3 3.8 5.7 8.1 10.1 8.5 8.1.8 22.4-5.8 26.2-26.9 3.1-17.3-7.2-38-20.3-64.3-5-10.1-10.2-20.4-15.1-31.6l.1-.1-.1-.1c-.5-1-.9-2.1-1.4-3.1-1.5-3.4-3-6.9-4.5-10.3-2.2-5-4.4-10.1-6.5-15.2-.2-.5-.4-.9-.6-1.4-5.3-12.5-10.5-25.2-15.3-38.4-3.4-9.6-6.6-19.4-9.4-29.5-6.8-24.6-9.5-49.3-10.1-71.4-.1-4.1-.1-8.1-.1-11.9.1-12.5.8-23.9 1.8-33.6 3.2-32.8 12.3-59.1 25.6-74 21-23.3 43.1-22.1 52.7-15.5 5.9 4.1 7.9 12 7.9 12 2.2-1.3 2.6-8-.5-13.3-5.9-10.1-21.5-13.8-42.7-10.2-48.4 8.2-66.4 53.9-89.2 111.8-3.4 8.5-6.8 17.4-10.5 26.3-.5 1.2-1 2.5-1.6 3.7-16 36.2-39.2 51.8-56.1 58.5-6.8 2.7-13.2 4.2-18.6 5-.8.1-1.5.2-2.3.3 0 .8-.1 1.5-.1 2.3-.1 2.5-.1 5-.1 7.5v4.2c.7.1 1.5.3 2.2.4 30 5.9 63.3 25.8 101.9 60.9zm-2.6-5.4c-2.2-4-3-9.1-2.3-13.5.4-10.5-6.3-21.6-7.4-23.3 1.1 1.7 7.8 12.7 7.4 23.3-.8 4.4.1 9.4 2.3 13.5zm-1.5-24.2s0-.1 0 0c-.5-4-.1-7.5 1.1-10.3-1.2 2.9-1.5 6.3-1.1 10.3zm4.1 24.2c-2.5-3.8-3.5-9-2.6-13.4.1-.6.3-1.3.5-1.9.7-2.1 2.2-4.8 5.2-5.9 5.8-2.2 8.7 1.3 9.4 2.3-.3 1.5-.5 3-.5 4.7-1.2-.7-3.3-1.4-5.2-.2-1.9 1.2-3.4 6-2.4 9.7.6 2.2 2.6 5.8 9.1 5.8h.4c.3 1.2.7 2.5 1.2 3.8-3.7 1.4-10.7 2-15.1-4.9zm-.2-35c.2-.3.3-.5.5-.8 1.2-1.7 2.9-2.9 4.9-3.7.1 0 .2-.1.3-.1.1 0 .2-.1.2-.1h.1c1.3-.4 2.6-.7 4.1-.8 6.4-.4 8.5 6.2 9 8.1-.4.4-.8.9-1.1 1.4-.1.1-.2.2-.2.3-1.2-2.4-3.5-5-7.3-5-2.6-.1-4.9 1.1-6.4 3.1-1.7 2.4-2.2 5.8-1.4 9.3h-.1c-1.3.5-2.6 1.3-3.6 2.3-1.4-5.9-1-10.6 1-14zm.8-61.9c12.6 7.5 15.1 39.5 15.4 45.6-7.3 1.2-9.3 6.9-9.8 9l-1.8.6h-.1c-1 .3-3.1.6-5.2-.6-.2-.1-.4-.2-.5-.3.2.1.3.2.5.3 2.1 1.2 4.2.9 5.2.6h.1l1.8-.6c.5-2.1 2.5-7.9 9.8-9-.4-6.1-2.8-38-15.4-45.6zm-1.5-3.1c1 .3 1.9.8 2.8 1.4-.8-.6-1.8-1-2.8-1.4zm20.9 50.8c3.2.2 5.7 1.3 7.3 3.2 2 2.4 2.3 5.6 2.4 7-.8.2-1.6.4-2.3.7-.7-3.2-2.8-7.6-7.7-7.7-2.6-.1-4.5.5-5.7 1.8-.5.6-.8 1.2-1 1.7-1-.3-2-.4-3.2-.3-.4 0-.8.1-1.1.1.7-2.4 3.3-7 11.3-6.5zm-1.8-2.3h1.9c2.4.2 4.5.8 6.2 1.8-1.7-1-3.8-1.6-6.2-1.8h-1.9zm4 8.6c2.1 1.4 2.8 4.2 3 5.6-1.6.8-3.1 1.9-4.6 3.1 1.4-1.3 2.9-2.3 4.5-3.1-.1-1.4-.8-4.2-2.9-5.6zM116 303.2c-.2-.2-.5-.4-.8-.6.3.2.6.4.8.6.1 3 .5 6.4 1.4 10.1-1.9 0-3.4-.4-4.5-1.1 1.1.7 2.6 1 4.5 1.1-1-3.7-1.4-7.1-1.4-10.1zm1.2-10.2c.7-2.8 1.8-5 2.9-6.8-.3-.9-1.1-2.9-2.8-4.1 1.8 1.2 2.6 3.2 2.8 4.1-1.1 1.8-2.2 4.1-2.9 6.8zm-1.4-1.1c-1.6-1.1-4-1.9-7.1-1.3 3.1-.6 5.4.2 7.1 1.3zm16.1 50.3c-3.7-3.7-7.6-9.5-11.2-18.4-.3-.8-.6-1.5-.9-2.2.3.7.6 1.5.9 2.3 3.7 8.8 7.6 14.6 11.2 18.3 1.4 1.4 2.7 2.5 4 3.3-1.3-.9-2.6-2-4-3.3zm18.6 19.9l-.1 1.1.1-1.1c0-.2.5-4.6 4.3-6.6 1.2-.6 2.5-.9 4.1-1-.2-.6-.4-1.3-.6-1.9-1-2.4-2.3-3.7-3.4-4.5 1.2.8 2.4 2.1 3.4 4.5.2.6.4 1.3.6 1.9-1.5 0-2.9.3-4.1 1-3.8 2.1-4.3 6.5-4.3 6.6zm3.1-16.8zm2.7-2.5zm16.8 30.8c-2.1-1.4-4.2-2.9-6.2-4.4-2-1.5-4-2.9-5.9-4.1 1.8 1.2 3.8 2.7 5.9 4.2 2.1 1.3 4.1 2.8 6.2 4.3.1 0 0 0 0 0zm16.2 3.3c1.8 3.7 3.6 7.3 5.4 10.9 12.9 25.9 23.1 46.3 20.1 62.9-3.4 18.6-15.9 25.9-23.8 25.1-1-.1-2.1-.5-3-1.1 1 .6 2 1 3 1.1 7.9.8 20.4-6.5 23.8-25.1 3-16.5-7.2-37-20.1-62.9-1.8-3.6-3.6-7.2-5.4-10.9zm-1-2c-1.8.7-6.6 1.7-13.9-3.2-2.1-1.4-4.1-2.9-6.1-4.4-6.2-4.5-11.1-8-14.6-7.6.5-.8 1.2-1.6 2.2-2.2 2.7-1.4 6.8-.6 12 2.2 1.2.6 2 1.1 3.2 2.4.2.2.4.4.6.7.8.9 1.7 1.7 2.6 2.5 2.8 2.3 5.8 3.4 9 3.4.7 0 1.3-.1 2-.2.9 2.1 2 4.3 3 6.4zm-8.5-18.1c1.4 3.2 2.9 6.4 4.4 9.6-2.6.2-5.1-.5-7.5-2.1 2.4 1.6 4.9 2.3 7.5 2.1-1.5-3.2-3-6.4-4.4-9.6zm-1.7-4c.3.6.5 1.3.8 1.9-3.5 3-7.8 2.1-9 1.7-.8-1.5-1.5-3-2.2-4.5 1.3.5 2.9.8 4.5.8 1.8 0 3.6-.4 5.1-1.6.3.5.5 1.1.8 1.7zm-4.5-10.4c-1.3-3-2.6-6.1-4-9.2 1.4 3.1 2.7 6.2 4 9.2 1 2.2 1.9 4.3 2.8 6.5-3.3 3.1-8.4.8-9.7 0 1.4.7 6.4 3.1 9.7 0-.9-2.2-1.9-4.3-2.8-6.5zm-4.8-11.2c-2.2.8-5.8 3.3-5.6 10.7.1 2.6.7 5.7 1.8 8.9.7 2.1 1.7 4.3 2.8 6.3-2.3-1.1-4.4-1.9-6.4-2.2-.3-1-.7-2-.9-3-2.6-8.9-2.5-15.8.4-20 1.9-2.7 4.6-3.9 6.4-4.4.4 1.2.9 2.5 1.5 3.7zm-12.6 9.3c0-4 .9-7.4 2.7-10 2.2-3.2 5.1-4.5 7.3-5.1-4.1-9.6-8.1-19.4-11.9-29.4 3.8 10 7.8 19.8 11.9 29.4-2.2.6-5.1 2-7.3 5.1-1.7 2.7-2.6 6-2.7 10-.8-.2-2.1-.7-3.4-1.5 1.4.8 2.6 1.3 3.4 1.5zm-5.7-52.9c1.8 4.7 2.1 10.5.7 15-1.2 3.7-4.3 6.9-7.9 8.2-1 .4-2.1.6-3.1.7-3.6.2-6.4-1.7-8-5.4-2.8-6.5.4-11 1.4-12.2 1.7-1.9 3.5-2.5 4.5-2.3 2.2.6 3.1 3.6 2.8 6.1-.2 1.9-1 3-1.6 3.1-.6 0-.8-.2-.9-.3-.7-.8-.5-2.9-.3-3.8-1 .4-3 3.4-1.4 5.3.5.5 1.3 1.2 2.7 1.2 2-.1 3.4-2 3.8-5 .4-3.4-.8-7.6-4.4-8.6-2.1-.6-4.7.6-6.8 3-3.4 3.9-4.1 9.3-1.8 14.6 1.9 4.5 5.6 7 10.1 6.7.8 0 1.5-.1 2.3-.3-1 3.4-2.1 10.1 1.2 17.8 2.6 6.3 6.5 9.2 9.4 10.6-.5 1.3-1.7 2.8-3.5 3.7-1 .5-2.1.8-3.4 1-4 .4-14.3-1.1-23.5-23.5-7.9-19.4-4-30.9-.2-36.6.3-.5.6-.9.9-1.3 4-5.2 10.1-8.1 15.5-7.4 4 .6 7.4 2.8 9.7 6.5.8.8 1.4 1.9 1.8 3.2zM136 275.3c1.1-.1 2.3-.1 3.4.1 2.3.3 4.4 1.1 6.2 2.3-1.8-1.2-3.9-1.9-6.2-2.3-1.1-.2-2.2-.2-3.4-.1zm5.7-17.7c2.1 7.7 4.5 15.2 7 22.6-2.6-7.4-4.9-14.9-7-22.6-6.1-22-8.9-44.1-9.9-64.4 1 20.3 3.8 42.4 9.9 64.4zm77.6-207.1c1.2 2.1 1.8 4.2 1.9 5.9v-.1c-.2-1.7-.8-3.7-1.9-5.8-1.4-2.3-3.3-4.3-5.8-5.8 2.5 1.6 4.4 3.5 5.8 5.8zm-86.1 89.4c3.2-33.3 12.5-60 26.2-75.2 22-24.4 45.3-22.8 55.6-15.8-10.3-7-33.6-8.6-55.6 15.8-13.6 15.1-23 41.8-26.2 75.2-.7 7.7-1.3 16.4-1.6 25.9.2-9.6.9-18.3 1.6-25.9zM84 170.4c5.3-7 11.8-11.9 19.2-14.1 8.8-2.7 15.8-2.5 21.1.6-5.2-3.1-12.3-3.3-21-.6-7.5 2.2-14.1 7.1-19.3 14.1-.1 0 0 0 0 0zm-4.4 11.7c.3-.7.7-1.5 1.1-2.2 5.7-11.2 13.7-18.6 23.1-21.6 9.2-2.8 16.3-2.3 21.1 1.7 4.1 3.4 5.8 8.7 6.5 13.7.7 5.2.3 9.9.1 11.7v.2c-1.4 10.9-8.7 17.3-15 18.6-1.1.2-2.2.3-3.2.3-4.1-.2-7.8-2.6-10.3-6.8-6.1-10.3-.8-17.7 1-19.7 3-3.4 7.3-5.1 10-4 3.3 1.5 3.9 5.5 3.3 8.5-.5 3-2 5.2-3.6 5.3-.8.1-1.2-.2-1.5-.5-1.2-1.3-2.2-4-1.7-6.2-1.2.8-2.2 5.4 0 7.7.8.9 2 1.3 3.3 1.2 2.7-.2 5-3.1 5.7-7.2.6-3.8-.2-8.9-4.6-10.9-3.6-1.6-8.8.2-12.6 4.5-5.5 6.2-5.9 14.5-1.2 22.3 2.1 3.5 4.8 5.9 8 7-9.7 5.1-17.6 22.6-15.5 47.6.9 11.1 3.8 18.1 8.5 20.8.8.5 1.7.8 2.5.9-.7.6-1.4 1.3-2 2.1 0 .1-.1.1-.1.2-1.2.3-4.3.7-8.1-1.1-.2-.1-.5-.2-.8-.4-4.8-2.6-11.4-9-17-25.2-7.3-21-6-48.9 3-68.5zm-6.7 12.5c-4.7 18.1-4.3 39.7 1.7 57.1 4.3 12.5 9.7 21 16 25.3-6.4-4.3-11.8-12.8-16.1-25.3-5.9-17.4-6.3-38.9-1.6-57.1zM2.3 256.7c17.5 3.4 36 11.4 56 24.4-20.1-12.9-38.6-20.9-56-24.4zM268.6 137c-.7.3-1.5.5-2.2.6V161c.7-.5 1.5-1.1 2.2-1.8 4.8-4.1 10.3-10.9 14.5-22.1 1.3-3.4 2.4-7.2 3.3-11.5 0-.6.1-1.2.1-1.7.2-4.8.2-8.9-.2-11.9-1-7.5-3.5-9-5.3-9-1.1 0-1.9.5-1.9.5s.3-.1.7-.1c1.4 0 4.4 1 4.1 9.5-.4 9.2-5 20.6-15.3 24.1zm15.5-11.6c.1-.8.1-1.6.1-2.3v-.1c0 .8 0 1.6-.1 2.4-3.5 16-9.9 25.3-15.5 30.6 5.6-5.3 12-14.6 15.5-30.6zm-45.3 210c-1 0-2.2.2-3.5.5-.4-.9-1-1.8-1.7-2.7 1.7-.1 4.9-1.2 7.1-7.9 3.1-9.3-4.1-19.5-10.7-19.5-.5 0-1 0-1.5.1-3.8.7-6.7 3.9-7.7 8.3.1-.4.1-.8.1-1.2.2-2.6.1-5.5-.4-8.6 1.3 1 3.2 1.7 5.4 1.7.8 0 1.6-.1 2.5-.2 2.9-.5 6.2-2 9.6-4.8 8.1-6.6 11.8-29.3-2.3-65.4-14.1-36.1-24-83.2-24-114.2 0-25.6 9.1-32.7 15.9-32.7 1.4 0 2.7.3 3.9.8 6.5 2.9 8.3 15.3 4.7 18.5-1 .9-1.9 1.2-2.7 1.2-1.8 0-2.9-1.9-3.1-2.1.9 2.4 2.3 3.4 4 3.4 1.8 0 4-1.3 5.8-3.7.6-.8 1.2-2.2 1.5-3.9.2-1.3.4-2.8.3-4.4l1.6-38.7c.1-.8.1-1.7.1-2.6V0c-.7 0-1.5.1-2.2.1-63.1 3.2-122 29.3-167.1 74.3C33.7 115.2 8.5 167.5 1.8 224c-.1.8-.2 1.5-.3 2.3.7-.1 1.5-.3 2.3-.5 16.4-3.6 41.7-15.8 58.1-55.5 3.6-8.8 7.1-17.6 10.4-26.1C84 114.8 95 86.9 110 65.1c17.3-25 38.7-39.4 65.4-43.9 42.7-7.2 62 11.6 65.6 29.9.4 2.2.6 4.3.6 6.3 0 11-5.7 20.1-14.5 22.1-13.7 3-20.3-2.4-23.1-6-1.7-2.1-2.7-4.6-3.2-7.2 0-.2-.1-.4-.1-.7l-.1-.9-.9-.1h-.1c-3.8-.2-13.5.7-25.1 13.5-15.8 17.6-29.4 69.6-17.9 138-1.8.6-3.2 2.1-3.6 4-1.6 8.2 2.8 13.2 3 13.4 0 0-2.2-5.9-.8-13 .2-1 .9-1.8 1.7-2.2.3-.2.7-.3 1.1-.3h1.1c2.2-.1 5.7-.1 9.9 0 1.3 6.1 2.7 12 4.2 17.6h-.3c-3.5.4-6.2 3.3-6.1 6.9.1 3.9.3 7.5.6 10.9.8 7.9 2.3 14.7 4.1 20.4 2.3 7.1 5.3 12.6 8.4 16.9 4.9 6.9 10.1 10.5 13.3 12.3-1 4.7-5.5 5.4-7.1 5.5-.8-.5-1.6-1.2-2.4-1.8-.4-.3-.8-.7-1.2-1.1l-3.3-3 1.5 4.2c.1.3 2.2 6.2 7.2 10.2 3.9 9.6 7.9 18.9 11.8 27.8.4.8.7 1.6 1.1 2.5 4.2 9.7 8.5 18.8 12.7 27.6 2.2 4.7 4.3 9.2 6.3 13.6-.1 0-.2 0-.2.1l.5.5c11.3 24.6 18.9 45 15.5 64.1-5.2 28.9-25.4 42.1-42 42.1-1.2 0-2.3-.1-3.5-.2-16.9-1.7-27.2-11.4-27-25.3.1-7.6 3.6-11.3 6.4-13.1 3.7-2.3 5.9-2.3 8.7-2.4.8 0 1.9 0 2.6-.1l.7-.1.3-.6c.1-.2.2-.4.2-.6 2.1-6.5 6-18.5-44.6-73.7C101.8 340.4 51 289.9 3.3 277.9c-.8-.2-1.5-.4-2.3-.6.1.8.1 1.6.2 2.3 2.1 21.9 7.1 43.2 14.6 63.6.3.9.7 1.8 1 2.7.9.3 1.9.6 2.9.9 14.7 4.6 32.9 12.5 51.7 25.4 19.3 13.3 31 27 39.5 37.2 6.7 8.1 11.9 15.6 11.9 28.3 0 12.5-9.9 16.1-15.1 16.1-4.3 0-8.5-1-12-3.4-.9-.7-1.8-1.4-2.6-2.2-.8-.8-1.6-1.7-2.3-2.7-3.9-5.7-5.7-11.4-.7-15.8 1.3-1.2 3-1.7 4.7-1.7 2.6 0 5.3 1.1 7.1 2.5 3.8 2.9 3.5 7.6 2.1 9-.9.9-1.8 1.2-2.7 1.2-2.3 0-4.4-2.2-4.9-3.7.4 3.9 2.7 5 4.9 5 1.4 0 2.7-.4 3.5-.9 5-3.1 1.8-11.6-1.8-17.1-7.3-9.4-18.7-23.2-41-38.9-10.8-7.6-21.4-11.5-30.8-13.3-1-.2-2-.4-3-.5.4.8.8 1.7 1.3 2.5 11.7 22.1 26.8 42.5 45 60.7 5.8 5.8 11.7 11.2 17.9 16.3 42.2 35 94.3 55.2 149.3 57.9l-.2-134.7v-1c.1-4.6-.5-9.1-1-12.6-.8-6.4-2-21.2 4.7-21.2h.2c.2.1-1.4-3.8-6.6-3.8zM175.1 19c-7.7 1.3-14.9 3.4-21.8 6.3-17.5 7.4-32.4 20.2-45.1 38.5-15.2 22-26.3 50-37.9 79.6-3.3 8.5-6.8 17.2-10.4 26-15.8 38.2-39.8 50.3-55.7 54 15.9-3.7 39.9-15.8 55.7-54 3.6-8.8 7.1-17.6 10.4-26C82 113.7 93 85.7 108.2 63.8c12.7-18.4 27.6-31.1 45.1-38.5 6.8-2.9 14.1-5 21.8-6.3 23.7-4 40.5-.2 51.5 7.2-11-7.3-27.8-11.2-51.5-7.2zm66.5 26V2.4 45c.1 0 0 0 0 0zm0 24.2s.1 0 0 0l-1.1 21.6 1.1-21.6zM60.7 387c-1.1-.8-2.2-1.5-3.4-2.2 1.2.6 2.3 1.4 3.4 2.2 23.1 16.2 34.4 30.6 40.5 38.4.7 1 1.3 2.1 1.9 3.2-.6-1.1-1.2-2.2-1.9-3.2-6.1-7.8-17.4-22.2-40.5-38.4zm25.8 55.5c-2.7-5.9-2-10.7 2.2-14.5 1.6-1.5 3.8-2.2 6.2-2.2 2.4 0 5.1.8 7.3 2.1-2.2-1.3-4.8-2.1-7.2-2.1-2.4 0-4.6.8-6.2 2.2-4.3 3.8-5.1 8.7-2.3 14.5zm150-130.2c2.7 3.7 3.5 8.3 2.2 12.4-.7 2.2-1.5 3.6-2.3 4.5.7-.9 1.5-2.4 2.2-4.5 1.4-4.1.6-8.7-2.1-12.4-.9-1.3-2-2.4-3.1-3.1 1.1.7 2.2 1.8 3.1 3.1zm-3.4 20.2c-1.3-1.6-3.1-3.2-5.1-4.5 1.2-.2 2.2-.8 2.5-1.4 0 0-3.6-1.5-2.3-4.5.4-1 1.1-1.4 1.9-1.4 1.2 0 2.5 1.1 3.1 2.6 1.2 2.7 1.6 6.8-.1 9.2zm-6.8-11.3c.4-.9.9-1.6 1.6-2 .7-.5 1.5-.7 2.3-.7.8 0 1.6.2 2.3.7-.7-.4-1.5-.6-2.3-.6-.9 0-1.6.3-2.3.7-.7.4-1.2 1.1-1.6 1.9-.6 1.4-.7 2.8-.1 4.1.1.1.1.3.2.4-.2-.1-.4-.1-.6-.2.2.1.3.2.5.2-.1-.1-.1-.3-.2-.4-.5-1.3-.4-2.7.2-4.1zm-5.3.4c.4 1.8 1 3.1 1.8 4.1-.1 0-.2 0-.2-.1-5.5-1.3-13.7-.2-18.4 5-1.7-1.8-4.8-6.3-1.5-10.6.8-.2 1.5-.4 2.3-.8 2.9 2.9 5.8 4.4 8.4 4.4.7 0 1.4-.1 2.1-.3 2.7-.9 4.5-3.6 5.3-7.6-.4 1.9-.3 3.8.2 5.9zm1.4-60.8c-2.4-8-7.1-13.4-12.9-16.9 5.8 3.6 10.6 8.9 12.9 16.9zm-24.7-23.9c-1.4-5.1-2.9-10.5-4.3-16.2 7.5 1.6 14.6 4 19.5 7.9 2.2 7.4 4.3 14.5 6.2 20.7-5.5-6.9-13.4-10.6-21.4-12.4zm14.7 50.5c2.1 5.1 3.5 7.9 3.7 8.4 2.1 6.1 3 12.2 2.6 17.1-.4 4.6-1.9 7.7-4.2 8.5-2.3.8-5.4-.7-8.5-4-3.4-3.6-6.4-9-8.6-15.1v-.2c-4.2-12.1-3.4-23.8 1.6-25.5.4-.2.9-.2 1.3-.2 2.5 0 5.5 2.1 8.3 5.5 1.3 1.5 2.6 3.4 3.8 5.5zm8 15.7c2.7-2.2 11.9-11.6 5.3-32.9-.8-2.6-1.8-5.8-3-9.4 1.1 3.6 2.2 6.8 3 9.4 6.7 21.4-2.7 30.7-5.3 32.9zm6.8-221.3c3.2.1 5.7.9 7.8 2.1-2.1-1.2-4.6-2-7.8-2.1zm-.3 2.3v-2.2 2.2c5.3 0 9.1 2.3 11.3 6.8 1.2 2.4 1.7 5 1.8 7.4-.9-4.1-3.2-8.9-7.4-10.8-1.5-.7-3.1-1-4.8-1-2.8 0-8.2 1-12.4 7.8-3.8 6-5.7 15.2-5.7 27.1 0 31.4 9.9 78.7 24.2 115 6.3 16.1 9.5 30.9 9.3 42.9-.1 9.5-2.5 16.8-6.4 19.9-3.6 2.9-7.4 4.6-10.7 4.6-1 0-1.9-.2-2.7-.4 3.9-4 10.6-14.2 4.5-33.9-.5-1.5-1-3.2-1.6-5.1-.4-1.3-.9-2.8-1.3-4.2-2.4-7.8-5.5-17.6-8.7-28.3-.4-1.5-.9-3-1.3-4.5-9.3-31.9-19.3-71-18.5-92.9 1.1-31.9 10.8-48.8 28.9-50.3.4-.1.9-.1 1.5-.1zM199 68c.6 2.5 1.7 4.9 3.4 7 1.1 1.4 2.7 3.1 5.1 4.5-2.3-1.4-4-3.1-5.1-4.5-1.7-2.1-2.8-4.5-3.4-7zm21.2 14.7c-15.7 3.9-25 20.3-26.1 51.7-.7 21.4 8.7 59.3 17.8 90.8-5.2-3.3-12-5.5-19.1-6.9 7.1 1.4 13.9 3.6 19.1 6.9-9.1-31.5-18.5-69.4-17.8-90.8 1-31.4 10.3-47.9 26.1-51.7zM159 216c2.5-.1 5.9-.1 9.8-.1-1.2-5.5-2.3-11.1-3.2-16.9-4.9-28.3-8.8-86.8 8.7-116.7 0-.1.1-.1.1-.2-17.6 29.9-13.7 88.5-8.8 116.9 1 5.7 2.1 11.4 3.2 16.9-4-.1-7.4 0-9.8.1zm12.6 2.3c-.2-.8-.3-1.5-.5-2.3-1.2-5.6-2.3-11.4-3.3-17.3-6-34.6-7.7-95.2 11.9-120.3 4.6-5.9 10.2-9.6 16.7-10.9-3 3.1-7.8 9.3-11.9 19.8-5.8 14.8-11.1 41.5-3.6 84.5 3 17.1 6.2 32.5 9.6 46.1l.6 2.4c1.4 5.7 2.8 11.1 4.2 16.2.2.8.5 1.6.7 2.4 4.8 17.1 9.5 30.5 13.1 39.9-3.6-3.8-7.5-5.5-10.7-4.4-4.2 1.5-6.2 7.4-5.7 15.2-4.2-11.4-10.5-29.7-16.3-51.7-.2-.7-.4-1.5-.6-2.2-1.5-5.7-2.9-11.5-4.2-17.4zm21.6 82.2c.5.3 1 .6 1.4.9-2.6-6.3-12.3-30.8-20.7-63.3 8.5 32.5 18.1 57 20.7 63.3-.3-.3-.8-.6-1.4-.9zm-4.1 10c5 2.7 8.9 2.7 10.9 2.3-1.5-2.5-2.9-5.3-4-8.4 1.2 3 2.5 5.9 4 8.4-2 .4-5.9.5-10.9-2.3zm2.1 6.1c.4.3.9.5 1.4.7 3.2 1.4 6.8 1.5 10.7.2-.7-.8-1.3-1.7-2-2.6.6.9 1.3 1.8 2 2.6-3.9 1.3-7.5 1.3-10.7-.2-.5-.1-1-.4-1.4-.7zm3.4 10.3s-.1 0 0 0c-.4-2.8 0-5.2.3-6.5-.3 1.3-.8 3.7-.3 6.5zm5.8 13.7s0-.1 0 0c0-1.3.2-2.6.5-3.9-1.6-1.1-2.8-2.2-3.7-3.4.9 1.2 2.1 2.4 3.7 3.5-.3 1.2-.5 2.6-.5 3.8zm1.3-6.2c.3-.7.6-1.3 1-1.9-2.4-2.5-5.2-7.2-3.1-11.8-2.1 4.6.7 9.3 3.1 11.8-.4.6-.7 1.2-1 1.9zm5.3 21.2c0-.1 0-.1 0 0-.1-1.7-.1-3.2.1-4.3-.2 1.1-.2 2.6-.1 4.3zm-1.1-6.4c-.4-.2-1-.9-1.7-2-1-1.6-2.4-5.1-1.1-10.2 2.2-8.4 12.4-10.8 18.8-9.2 5.4 1.3 9.6 5.8 11.2 8.9-.6.3-1.3.6-2 .9-7 3.6-8.4 11-8.3 17.8-1.1-1.8-2.5-3.5-4.3-4.8-5.6-3.9-9.4-3.3-11.4-2.3-.4.3-.9.7-1.2.9zm18.7 21.1c.2 1.9.2 3.9.2 5.9-.4-.1-.9-.4-1.4-.7.5.3 1 .5 1.4.7 0-2-.1-4-.2-5.9zm-7.2-17.8c-.3-.2-.5-.4-.8-.5.3.2.6.3.8.5 3 2 4.7 5.6 5.7 8.8-1 .3-3 .2-5.3-1.4 2.3 1.6 4.3 1.6 5.3 1.4-1-3.2-2.7-6.8-5.7-8.8zm-5.8 13.1c.5.5 1.1 1 1.8 1.4-.7-.4-1.2-.9-1.8-1.4zm.1-3.3c-3.3-4.5-2.5-10.4-2.1-12.4.7-.1 1.7-.1 2.8.1-.6 2.1-1.3 6.7 2.3 10.1 2.8 2.7 5.4 3.5 7.4 3.5.6 0 1.2-.1 1.7-.2.2.9.4 1.7.5 2.4.1.7.2 1.3.2 1.7 0 .2 0 .4.1.5-6.2-.4-10.4-2.3-12.9-5.7zm3.1 10.1s0-.1 0 0c-.1-1.8.3-3.3.6-4.2-.3.9-.7 2.4-.6 4.2zm3.5 7.5l1.2.9-1.2-.9zm-.6-4.6c-1.1-2.5-.6-5-.2-6.3.4.2.9.3 1.4.4-.3 2.5.1 4.5 1.3 6.1 1.3 1.8 3.3 2.6 4.5 2.9-.1.8-.1 1.6-.3 2.4-3.4-1.2-5.7-3.1-6.7-5.5zm4.2 12.2c1-1 1.7-2.5 2.1-4.3-.4 1.8-1.1 3.3-2.1 4.3zM18.7 344.1c14.4 4.4 32.1 11.8 50.4 23.8-18.3-12-36-19.4-50.4-23.8zm29.2-42.9c32.4 21.3 63.7 53.1 87.9 79.5 49.2 53.8 46 65.7 44.2 71.4-.6 0-1.2 0-1.7.1-3 .1-5.6.1-9.8 2.7-2.7 1.7-7.4 5.9-7.5 15-.1 9.1 4.1 16.7 11.4 21.7-7.4-4.9-11.6-12.5-11.4-21.7.1-9.1 4.7-13.3 7.5-15 4.2-2.6 6.8-2.7 9.8-2.7.5 0 1.1 0 1.7-.1 1.8-5.7 5-17.6-44.2-71.4-24.3-26.4-55.5-58.2-87.9-79.5zm191.7 205.2c-20.4-1.2-40.2-4.8-59-10.6-23.2-7.1-45.1-17.6-64.9-30.7 19.8 13.1 41.7 23.5 64.9 30.7 18.8 5.8 38.6 9.4 59 10.6V384.9v121.5zm1.2-167.2c-3.7 4.2-3.3 14.1-2.3 21.6 1 7.3 3 22.6-5.1 28.7-1.5 1.1-3 1.7-4.6 1.7-2.1 0-4-1-5.4-2 2.3-2.3 3.3-6.4 3.6-10.7.2-3.6 0-7.3-.3-10.4v-.2c-.1-.6-.2-1.8-.4-3.2v-.2c-1.1-7.5-3-20.1 6.1-24.8 1.4-.7 2.6-1.2 3.8-1.5 1-.3 1.9-.4 2.7-.4 1.2 0 2.1.3 2.8.7-.3.1-.6.4-.9.7zm-36.3-46.9c-.6.2-1.6.9-1.6 3.1 0 1.3.3 2.9.8 4.5 1 2.8 2.8 5.6 4.7 5.6.2 0 .4 0 .7-.1 2.1-.7 1.9-4.5.8-7.6-1.1-3.1-3.3-6.2-5.4-5.5zm3.8 11c.2-.5.3-2.2-.6-4.7-.9-2.5-2-3.7-2.5-4 .5.3 1.6 1.6 2.5 4 .9 2.4.8 4.1.6 4.7zm163.4 75.9c-50.6 55.3-46.7 67.3-44.6 73.7.1.3.2.5.2.6l.3.6.7.1c.7.1 1.8.1 2.6.1 2.8.1 5 .1 8.7 2.4 2.9 1.8 6.3 5.5 6.4 13.1.2 13.9-10.2 23.6-27 25.3-1.2.1-2.3.2-3.5.2-16.6 0-36.8-13.2-42-42.1-3.4-19.1 4.2-39.5 15.5-64.1l.5-.5c-.1 0-.2 0-.2-.1 2-4.4 4.1-8.9 6.3-13.6 4.2-8.8 8.4-17.9 12.7-27.6.4-.8.7-1.6 1.1-2.5 3.8-8.9 7.8-18.2 11.8-27.8 5-4 7.1-9.9 7.2-10.2l1.5-4.2-3.3 3c-.4.4-.8.7-1.2 1.1-.8.7-1.6 1.3-2.4 1.8-1.6-.1-6.1-.8-7.1-5.5 3.2-1.8 8.4-5.4 13.3-12.3 3.1-4.3 6-9.8 8.4-16.9 1.9-5.7 3.4-12.5 4.1-20.4.3-3.4.5-7 .6-10.9.1-3.5-2.6-6.5-6.1-6.9h-.3c1.5-5.7 2.8-11.6 4.2-17.6 4.2-.1 7.7-.1 9.9 0h1.1c.4 0 .8.1 1.1.3.9.4 1.6 1.2 1.7 2.2 1.4 7.1-.8 13-.8 13 .2-.2 4.6-5.3 3-13.4-.4-1.9-1.8-3.5-3.6-4 11.5-68.3-2.1-120.4-17.9-138-11.6-12.8-21.3-13.8-25.1-13.5h-.1l-.9.1-.1.9c0 .2-.1.4-.1.7-.4 2.6-1.5 5.1-3.2 7.2-2.7 3.5-9.4 9-23.1 6-8.8-2-14.5-11.1-14.5-22.1 0-2.1.2-4.2.6-6.3 3.6-18.3 22.9-37.1 65.6-29.9 26.7 4.5 48.1 18.8 65.4 43.9 15.1 21.8 26.1 49.7 37.7 79.2 3.4 8.5 6.8 17.3 10.4 26.1 16.4 39.7 41.6 51.9 58.1 55.5.8.2 1.6.3 2.3.5-.1-.8-.2-1.6-.3-2.3-6.7-56.5-32-108.8-72.8-149.6-45-45-103.9-71.1-167.1-74.3-.7 0-1.5-.1-2.2-.1v57.5c0 .9 0 1.7.1 2.6l1.6 38.7c0 1.6.1 3.1.3 4.4.3 1.7.8 3.1 1.5 3.9 1.9 2.3 4 3.7 5.8 3.7 1.6 0 3.1-1.1 4-3.4-.1.2-1.2 2.1-3.1 2.1-.8 0-1.7-.3-2.7-1.2-3.6-3.2-1.8-15.6 4.7-18.5 1.1-.5 2.5-.8 3.9-.8 6.8 0 15.9 7 15.9 32.7 0 31-9.9 78.1-24 114.2-14.1 36.1-10.4 58.7-2.3 65.4 3.4 2.8 6.7 4.3 9.6 4.8.9.2 1.7.2 2.5.2 2.2 0 4.1-.6 5.4-1.7-.5 3.1-.6 6-.4 8.6 0 .4.1.8.1 1.2-.9-4.4-3.8-7.6-7.7-8.3-.5-.1-1-.1-1.5-.1h.1c-6.6.1-13.8 10.2-10.7 19.5 2.2 6.7 5.5 7.8 7.1 7.9-.7.9-1.3 1.8-1.7 2.7-1.3-.4-2.4-.5-3.5-.5-5.1 0-6.8 3.9-6.8 3.9h.2c6.8 0 5.6 14.8 4.7 21.2-.5 3.5-1 8-1 12.6v1l-.2 134.7c55.1-2.7 107.1-23 149.3-57.9 6.2-5.1 12.2-10.6 17.9-16.3 18.2-18.2 33.3-38.6 45-60.7.4-.8.9-1.6 1.3-2.5-1 .1-2 .3-3 .5-9.4 1.8-19.9 5.7-30.8 13.3-22.3 15.7-33.7 29.5-41 38.9-3.6 5.5-6.8 14-1.8 17.1.8.5 2.1.9 3.5.9 2.2 0 4.5-1.1 4.9-5-.4 1.5-2.6 3.7-4.9 3.7-.9 0-1.8-.3-2.7-1.2-1.4-1.3-1.7-6.1 2.1-9 1.8-1.4 4.5-2.5 7.1-2.5 1.7 0 3.4.5 4.7 1.7 5 4.4 3.2 10.2-.7 15.8-.7 1-1.5 1.9-2.3 2.7-.9.7-1.7 1.5-2.6 2.2-3.5 2.4-7.7 3.4-12 3.4-5.2 0-15.1-3.6-15.1-16.1 0-12.8 5.2-20.2 11.9-28.3 8.4-10.2 20.2-23.9 39.5-37.2 18.8-12.9 37-20.8 51.7-25.4 1-.3 1.9-.6 2.9-.9.3-.9.7-1.8 1-2.7 7.5-20.3 12.5-41.6 14.6-63.6.1-.8.2-1.6.2-2.3-.8.2-1.5.3-2.3.6-47.4 11.6-98.2 62.1-133.8 100.9zm-40.8 73c-.5 0-1.1 0-1.7-.1.5.1 1.1.1 1.7.1 3 0 5.6.1 9.8 2.7-4.2-2.6-6.8-2.7-9.8-2.7zM505 223.5C495.7 148 453 82.7 392.1 43 453 82.7 495.7 148 505 223.5zM267.5 45c6.4-17.2 26.6-32.7 66.6-26 7.7 1.3 14.9 3.4 21.8 6.3 4.4 1.9 8.6 4.1 12.7 6.6-4.1-2.5-8.3-4.7-12.6-6.6-6.9-2.9-14.1-5-21.8-6.3-40.1-6.7-60.4 8.8-66.7 26zm146.7 380.8c-2.8 0-5.8 1-8.2 2.7 2.4-1.7 5.4-2.7 8.2-2.7 1.8 0 3.5.4 4.9 1.3-1.4-.8-3.1-1.3-4.9-1.3zm8.5 16.7c-.1 0 0 0 0 0zm-152.4 1.3c0 3.3.3 6.6.9 9.9 3.2 17.9 12 30 22.3 36.9-10.3-6.9-19.1-19-22.3-36.9-.6-3.2-.9-6.5-.9-9.9 0-15.8 6.1-32.5 14.8-51.7-8.6 19.2-14.8 36-14.8 51.7zm-.8-58.9c1.1 2.5 2.6 4.7 4.9 6.4.3.2.5.4.8.5-.3-.2-.5-.3-.8-.5-2.3-1.7-3.8-3.9-4.9-6.4zm17.8 2.6s-.1 0 0 0c1.1-2.5 2.3-5 3.5-7.6-1.2 2.6-2.4 5.1-3.5 7.6zm4.1-12.2c-1 2.4-3.3 4.3-6.8 5.6l-.3-2.4c1.2-.3 3.1-1.1 4.5-2.9 1.2-1.6 1.6-3.7 1.3-6.1.5-.1 1-.3 1.4-.4.5 1.2 1 3.7-.1 6.2zm-3.4-5.4c.2 1.8-.1 3.2-.9 4.3-.8 1.1-1.9 1.7-2.8 2 .8-.3 2-.9 2.7-2 .8-1.1 1.2-2.5 1-4.3zm6.3 2.5s0-.1 0 0c1-2.3 2.1-4.5 3.1-6.7-1 2.2-2 4.4-3.1 6.7zm3.1-10.1c-2.5 3.4-6.8 5.3-12.7 5.8 0-.1 0-.3.1-.5 0-.4.1-1 .2-1.7s.3-1.5.5-2.4c.5.1 1.1.2 1.7.2 2 0 4.6-.8 7.4-3.5 3.6-3.5 2.9-8 2.3-10.1 1.1-.3 2.1-.3 2.8-.1.3 1.9 1.1 7.8-2.3 12.3zm-2.7-11.5c.5 1.7 1 5.2-1.7 7.8-3 2.9-5.7 3.1-7 2.7 1.3.3 3.9.1 6.9-2.7 2.8-2.6 2.2-6.1 1.8-7.8zm7.4.4l.1.1c-.1 0-.1 0-.1-.1zm0 4.4c0-.1 0-.1 0 0 .6-1.4 1.3-2.9 1.9-4.3-.6 1.4-1.2 2.9-1.9 4.3zm2.8-8.4c-.7 1.1-1.3 1.7-1.7 2-.3-.3-.8-.6-1.4-.9-2-.9-5.8-1.5-11.4 2.3-1.8 1.2-3.2 2.9-4.3 4.8.2-6.8-1.2-14.2-8.3-17.8-.7-.3-1.3-.6-2-.9 1.6-3.1 5.8-7.6 11.2-8.9 6.5-1.5 16.6.8 18.8 9.2 1.5 5.1.1 8.6-.9 10.2zm3.8-6.6s0-.1 0 0c1-2.5 2.1-4.9 3.1-7.3l.1-.1c-1.1 2.5-2.1 4.9-3.2 7.4zm-1.3-6.2c6.7-5.1 5-12 4.5-13.7.6 1.7 2.3 8.7-4.5 13.7zm7.2-7.5s0-.1 0 0c1.1-2.6 2.1-5.1 3.2-7.6-1.1 2.5-2.2 5.1-3.2 7.6zm8.9-15.6c.1-.1.2-.2.3-.4h.1c-.2.1-.3.2-.4.4-1 1.6-2.5 3.2-4.3 4.5-.8.6-1.7 1.1-2.6 1.6-3.2 1.4-6.8 1.5-10.7.2 3.9 1.3 7.5 1.2 10.7-.2 1-.4 1.8-1 2.6-1.6 1.8-1.3 3.2-3 4.3-4.5zm-32.6-16.4c1.1-3.2 2.4-6.1 3.9-8.7 3.7-8.9 9.6-24.5 16-46.8-6.3 22.3-12.3 37.9-16 46.8-1.5 2.6-2.8 5.5-3.9 8.7-.9 2.8-1.7 5.5-2.1 8.2.4-2.7 1.1-5.4 2.1-8.2zm-.9-45.5c1.9-6.3 4.1-13.3 6.2-20.7 4.9-3.8 12-6.3 19.5-7.9-1.4 5.7-2.9 11.1-4.3 16.2-8 1.7-15.9 5.4-21.4 12.4zm3 46.3c.2-.4 1.6-3.2 3.7-8.4 1.2-2.1 2.5-4 3.7-5.6 2.8-3.5 5.8-5.5 8.3-5.5.5 0 .9.1 1.3.2 5 1.7 5.8 13.4 1.6 25.5v.2c-2.1 6.1-5.2 11.5-8.6 15.1-3.1 3.4-6.2 4.8-8.5 4-2.3-.8-3.8-3.9-4.2-8.5-.3-4.8.6-10.9 2.7-17zm27 14.8c-5 2.7-8.9 2.7-10.9 2.4 2 .3 5.9.3 10.9-2.4zm-2.8-1.3c-1.5-1-2.8-2.6-3.5-4.9.7 2.3 2 3.8 3.5 4.9zm22.7-66.5c0-1.5-.7-2.8-1.8-3.7 1.1.9 1.8 2.2 1.8 3.7-.1 12.5-2 22.4-4.6 30.3-6 18.1-16.2 25.7-20.9 28.3 4.7-2.7 14.9-10.3 20.8-28.3 2.7-7.9 4.5-17.9 4.7-30.3zm10.3-26.7c-2.5-.1-5.9-.1-9.8-.1 3.9-.1 7.3 0 9.8.1 10.9-64.7-.7-114.4-15.3-133.7v-.1c14.5 19.2 26.2 69 15.3 133.8zM329.5 78.4c19.6 25.1 17.9 85.7 11.9 120.3-1 5.9-2.1 11.7-3.3 17.3-.2.8-.3 1.5-.5 2.3-1.3 6-2.7 11.8-4.1 17.3-.2.7-.4 1.5-.6 2.2-5.7 22-12 40.3-16.3 51.7.5-7.8-1.5-13.7-5.7-15.2-3.2-1.1-7.1.6-10.7 4.4 3.6-9.4 8.3-22.8 13.1-39.9.2-.8.4-1.6.7-2.4 1.4-5.1 2.8-10.5 4.2-16.2l.6-2.4c3.3-13.6 6.6-29 9.6-46.1 7.4-43 2.1-69.7-3.6-84.5-4.1-10.5-8.9-16.7-11.9-19.8 6.4 1.4 12 5.1 16.6 11zM310.1 68c2.5 2.4 8.1 8.6 12.6 20.3 5.6 14.5 10.7 40.7 3.4 83-3 17.5-6.4 33.1-9.8 46.9-7.1 1.4-13.9 3.6-19.1 6.9 5.2-3.3 12-5.5 19.1-6.9 3.4-13.8 6.7-29.5 9.8-46.9 7.3-42.3 2.2-68.5-3.4-83-4.5-11.7-10-17.9-12.6-20.3zm-21.2 14.7zm-21.4-13.5c1.8 4.4 4.7 8 8.4 10.3-3.7-2.3-6.6-5.9-8.4-10.3zm1.1 21.6c2-4.9 6.1-8.9 13.3-9h.1c-7.3.2-11.4 4.2-13.4 9zm17.2 212.6c-.8.3-1.7.4-2.7.4-3.3 0-7.1-1.6-10.7-4.6-3.9-3.2-6.2-10.5-6.4-19.9-.2-12 3-26.8 9.3-42.9 14.2-36.3 24.2-83.6 24.2-115 0-12-1.9-21.1-5.7-27.1-4.3-6.8-9.6-7.8-12.4-7.8-1.7 0-3.3.4-4.8 1-4.2 1.9-6.5 6.6-7.4 10.8.1-2.3.6-5 1.8-7.4 2.2-4.5 6-6.8 11.3-6.8v-2.2 2.2c.5 0 1.1 0 1.6.1 18.1 1.5 27.8 18.4 28.9 50.3.8 21.8-9.2 60.9-18.5 92.9-.4 1.5-.9 3-1.3 4.5-3.2 10.8-6.3 20.6-8.7 28.3-.5 1.5-.9 2.9-1.3 4.2-.6 1.9-1.1 3.6-1.6 5.1-6.2 19.7.5 29.9 4.4 33.9zm2.3 18.2c.5-2 .6-4 .4-5.8.8 4 2.7 6.7 5.3 7.6.7.2 1.3.3 2.1.3 2.6 0 5.5-1.5 8.4-4.4.8.3 1.6.6 2.3.8 3.3 4.2.1 8.7-1.5 10.6-4.7-5.3-13-6.3-18.4-5-.1 0-.2 0-.2.1.6-1.1 1.2-2.4 1.6-4.2zm-3.9-11c2 2.5 2.7 6.4 1.8 10.4-.6 2.6-1.7 4.2-3.2 4.7 1.5-.5 2.6-2.1 3.2-4.6.9-4.1.2-8-1.8-10.5-.5-.6-1.1-1.2-2-1.7.9.5 1.5 1.1 2 1.7zm-11.5 18.6s0-.1 0 0c-.2-2.3.3-4.7 1-6.7.9-2.3 3-4 5.2-4 .9 0 1.6.3 2.3.7-.7-.5-1.4-.7-2.3-.7-2.1 0-4.2 1.6-5.2 4-.7 1.9-1.2 4.4-1 6.7zm3.1-5.9c.6-1.5 1.9-2.6 3.1-2.6.7 0 1.4.4 1.9 1.4 1.4 3.1-2.3 4.5-2.3 4.5.3.6 1.3 1.2 2.5 1.4-2 1.3-3.7 2.9-5.1 4.5-1.5-2.4-1.1-6.5-.1-9.2zm-7.5 15.9c-.3-.3-.6-.6-.9-.8.7-.4 1.6-.7 2.8-.7.8 0 1.7.1 2.7.4 1.2.3 2.5.8 3.8 1.5 9.1 4.6 7.2 17.2 6.1 24.8v.2c-.3 1.5-.4 2.6-.4 3.2v.2c-.3 3.1-.6 6.8-.3 10.4.3 4.3 1.3 8.4 3.6 10.7-1.3 1-3.2 2-5.4 2-1.6 0-3.1-.6-4.6-1.7-8.1-6-6-21.3-5.1-28.7 1-7.4 1.4-17.3-2.3-21.5zm138.5 116.4c-23.2 17.7-49.7 31.4-78.3 40.2-18.8 5.8-38.6 9.4-59 10.6 20.4-1.2 40.1-4.8 59-10.6 28.5-8.8 55-22.5 78.3-40.2zm83.6-111.5c-15.4 4.7-34.5 12.8-54 26.3-19 13.1-30.6 26.3-39.9 37.6-6.8 8.3-12.4 16.2-12.4 29.8 0 8 3.7 12.9 8.1 15.7-4.4-2.7-8.1-7.7-8.1-15.7 0-13.6 5.6-21.5 12.4-29.8 9.4-11.3 20.9-24.6 39.9-37.6 19.5-13.5 38.6-21.6 54-26.3 7.7-20.2 12.8-41.6 15.1-63.8-2.2 22.2-7.4 43.7-15.1 63.8zm-190.3-38.7c.2.1.4.1.7.1 1.9 0 3.7-2.8 4.7-5.6.6-1.6.8-3.2.8-4.5 0-2.3-1-2.9-1.6-3.1-2.1-.7-4.3 2.3-5.4 5.5-1.1 3.2-1.4 6.9.8 7.6zm3.2-6.2c.8-2.5.8-4.1.5-4.7.3.5.4 2.2-.5 4.7-.8 2.5-2 3.8-2.5 4 .5-.2 1.7-1.5 2.5-4zm-37-84.2c.7-2.1 1.5-4.4 2.2-6.8 4.1-12.5 8.9-27.7 11.1-37.4 1.5-6.2 3.1-14.9 4.4-23.9.4-3.1.8-6.3 1.2-9.3-.4 1.4-1.6 4.6-3.4 8.5-2.8 6-7.2 13.6-13.3 18.2-.7.6-1.5 1.1-2.2 1.5V215zm2.3-14.3c3.5-10.9 7.1-22.6 8.9-30.5 1.1-4.6 2.2-10.6 3.3-17v-.1c-1.1 6.5-2.2 12.5-3.3 17.1-1.8 8-5.4 19.7-8.9 30.5z" fill="#fff"/></svg>